<svg width="46" height="885" viewBox="0 0 46 885" fill="none" xmlns="http://www.w3.org/2000/svg">
<g filter="url(#filter0_d_7_4)">
<path d="M23 0.666667C15.6362 0.666667 9.66667 6.6362 9.66667 14C9.66667 21.3638 15.6362 27.3333 23 27.3333C30.3638 27.3333 36.3333 21.3638 36.3333 14C36.3333 6.6362 30.3638 0.666666 23 0.666667ZM21.2323 875.768C22.2086 876.744 23.7915 876.744 24.7678 875.768L40.6777 859.858C41.654 858.882 41.654 857.299 40.6777 856.322C39.7014 855.346 38.1185 855.346 37.1422 856.322L23 870.465L8.8579 856.322C7.88159 855.346 6.29868 855.346 5.32237 856.322C4.34606 857.299 4.34606 858.882 5.32237 859.858L21.2323 875.768ZM20.5 14L20.5 874L25.5 874L25.5 14L20.5 14Z" fill="black"/>
</g>
<defs>
<filter id="filter0_d_7_4" x="0.590134" y="0.666672" width="44.8198" height="883.833" filterUnits="userSpaceOnUse" color-interpolation-filters="sRGB">
<feFlood flood-opacity="0" result="BackgroundImageFix"/>
<feColorMatrix in="SourceAlpha" type="matrix" values="0 0 0 0 0 0 0 0 0 0 0 0 0 0 0 0 0 0 127 0" result="hardAlpha"/>
<feOffset dy="4"/>
<feGaussianBlur stdDeviation="2"/>
<feComposite in2="hardAlpha" operator="out"/>
<feColorMatrix type="matrix" values="0 0 0 0 0 0 0 0 0 0 0 0 0 0 0 0 0 0 0.25 0"/>
<feBlend mode="normal" in2="BackgroundImageFix" result="effect1_dropShadow_7_4"/>
<feBlend mode="normal" in="SourceGraphic" in2="effect1_dropShadow_7_4" result="shape"/>
</filter>
</defs>
</svg>
