<svg width="318" height="318" viewBox="0 0 318 318" fill="none" xmlns="http://www.w3.org/2000/svg">
<path fill-rule="evenodd" clip-rule="evenodd" d="M140.366 0.23448C101.734 6.06016 71.9571 20.6223 46.3049 46.236C23.9206 68.5861 9.27195 95.444 2.52415 126.51C-0.614986 140.962 -0.881946 174.924 2.03698 188.448C11.8242 233.793 35.2389 268.382 72.5887 292.667C119.576 323.219 181.141 326.383 231.117 300.815C247.155 292.61 257.339 285.027 271.806 270.516C295.352 246.897 308.423 222.593 315.57 189.137C318.333 176.201 318.845 147.51 316.563 133.45C310.705 97.369 290.526 61.3325 263.269 38.2809C246.995 24.5178 230.73 15.1359 211.626 8.49254C193.779 2.28706 183.305 0.512585 162.18 0.116181C151.896 -0.0768323 142.08 -0.0239089 140.366 0.23448ZM104.736 61.0181C104.051 61.703 103.49 64.7383 103.49 67.7632V73.263H108.684H113.877V68.8248C113.877 66.383 113.149 63.3478 112.26 62.0797C110.501 59.5705 106.719 59.0371 104.736 61.0181ZM205.325 61.7798C204.734 62.8839 204.25 65.9192 204.25 68.5249V73.263H209.443H214.637V68.5249C214.637 62.1596 213.22 59.7729 209.443 59.7729C207.498 59.7729 206.012 60.4972 205.325 61.7798ZM156.041 62.171C154.897 63.0064 153.966 65.4086 153.629 68.3972L153.08 73.263H158.409H163.738V68.667C163.738 61.9801 160.288 59.0683 156.041 62.171ZM76.7053 75.6051C71.8958 77.1441 64.0687 84.3457 61.8125 89.307C60.4123 92.389 59.9012 96.0397 59.8846 103.097L59.8617 112.696H159.064H258.265L258.255 103.616C258.239 89.6131 253.503 81.352 242.684 76.4602C238.877 74.7387 235.825 74.3423 226.23 74.3236L214.45 74.3007L214.683 78.711C215.489 93.9674 214.15 99.2057 209.443 99.2057C205.226 99.2057 204.25 96.5585 204.25 85.123V74.3007H184.513H164.777V85.2434C164.777 95.4668 164.609 96.3541 162.238 98.7232C160.577 100.382 159.05 101.034 157.823 100.607C154.016 99.2804 153.35 97.0348 153.35 85.5173V74.3007H133.614H113.877V85.0358C113.877 94.2994 113.604 96.0179 111.885 97.5713C109.22 99.9819 105.401 99.2835 103.791 96.0926C103.023 94.5723 102.475 89.526 102.467 83.8995L102.451 74.3007L91.2843 74.4066C85.1431 74.4647 78.5823 75.0043 76.7053 75.6051ZM59.8846 181.444C59.9054 234.81 60.0394 239.067 61.8125 242.968C64.184 248.182 72.3913 255.531 77.3929 256.919C79.7655 257.577 110.144 257.961 159.583 257.959L238.009 257.954L243.203 255.502C249.445 252.554 253.263 248.68 256.104 242.409C258.149 237.896 258.221 235.837 258.242 180.925L258.265 124.111H159.064H59.8617L59.8846 181.444Z" fill="black"/>
</svg>
