<svg width="318" height="318" viewBox="0 0 318 318" fill="none" xmlns="http://www.w3.org/2000/svg">
<path fill-rule="evenodd" clip-rule="evenodd" d="M135.485 1.17688C115.635 4.43025 102.554 8.71821 84.9324 17.7491C49.5412 35.8867 20.6881 69.4124 7.82805 107.338C1.39905 126.297 0.055478 135.096 0.00352226 158.588C-0.0380423 177.179 0.261223 181.247 2.36231 190.627C6.99676 211.316 15.0291 231.023 24.8093 245.703C49.4623 282.703 84.3308 306.195 128.522 315.58C141.434 318.321 171.53 318.852 184.399 316.563C218.784 310.45 248.588 294.883 272.385 270.608C294.815 247.726 308.493 221.996 315.507 189.49C318.849 174.005 318.828 144.139 315.464 128.464C301.571 63.7117 254.529 16.2907 190.713 2.70385C177.522 -0.104935 148.249 -0.91412 135.485 1.17688ZM136.489 6.94195C92.1927 13.9026 55.167 37.7565 29.9986 75.5493C19.9545 90.6309 13.2252 106.593 8.62297 126.252C5.60435 139.144 4.80943 169.908 7.14224 183.518C14.0482 223.798 35.0965 258.176 67.706 282.436C129.453 328.374 217.144 320.705 269.79 264.763C286.131 247.399 297.555 228.508 304.23 207.812C309.881 190.292 311.241 182.456 311.873 163.782C312.36 149.361 312.113 144.666 310.313 134.177C299.46 70.9269 252.958 22.5014 189.594 8.46268C180.574 6.46412 145.857 5.47004 136.489 6.94195ZM135.56 14.7606C121.452 16.9898 109.012 21.0502 94.5151 28.1563C50.1657 49.8953 21.0155 90.2497 13.9193 139.731C12.1809 151.857 13.2346 178.309 15.9176 189.886C22.4224 217.951 33.6313 238.822 53.3059 259.508C69.3249 276.349 88.3137 288.984 108.285 296.094C162.779 315.491 221.528 302.595 261.293 262.508C283.178 240.445 295.686 217.732 301.957 188.667C305.403 172.695 305.424 144.909 302.001 129.627C295.073 98.6927 281.543 74.6144 259.003 53.103C237.185 32.2802 211.762 19.8048 180.762 14.7087C169.373 12.8369 147.574 12.8618 135.56 14.7606ZM142.314 27.3669C114.912 30.7854 86.9296 44.1926 67.1438 63.3835C41.1628 88.5825 27.9983 118.272 26.7701 154.433C26.3565 166.591 26.6319 172.88 27.8923 180.115C31.5064 200.865 39.8723 220.785 51.6693 236.732C54.8688 241.057 57.9861 244.904 58.5961 245.28C59.3754 245.762 59.7048 232.273 59.7048 199.875V153.784L81.1178 140.529C92.8941 133.239 103.159 127.034 103.926 126.74C104.694 126.445 114.461 132.404 125.629 139.983L145.937 153.761L146.204 222.395L146.471 291.029H158.421H170.37L170.89 233.688L171.41 176.345L193.975 162.371L216.54 148.396L237.098 162.336L257.656 176.276L258.176 211.319L258.695 246.362L265.67 237.039C276.957 221.948 284.731 204.398 289.059 184.237C291.618 172.315 291.589 145.794 289.005 133.658C281.932 100.448 264.795 73.0906 238.854 53.6005C214.633 35.4016 187.614 26.4653 157.901 26.8267C151.043 26.9098 144.029 27.1529 142.314 27.3669ZM150.368 69.9536L121.013 88.219V109.374V130.528L125.325 133.652C127.697 135.369 130.026 136.774 130.5 136.774C130.975 136.774 131.489 126.892 131.643 114.813L131.923 92.8507L150.976 81.0537C161.456 74.5646 170.224 69.2555 170.46 69.2555C170.697 69.2555 170.89 91.9761 170.89 119.746C170.89 165.612 171.043 170.178 172.554 169.599C173.468 169.248 183.171 163.422 194.115 156.653C205.059 149.883 214.631 143.996 215.386 143.569C216.24 143.086 220.06 144.989 225.507 148.613C230.319 151.814 234.5 154.433 234.8 154.433C235.099 154.433 235.221 139.409 235.07 121.046L234.796 87.657L208.298 69.671C193.725 59.778 181.333 51.6851 180.762 51.6861C180.19 51.6871 166.512 59.9068 150.368 69.9536ZM81.2664 149.077L66.9786 158.067V206.548V255.031L72.434 259.663C77.6254 264.07 95.1812 275.967 96.4926 275.967C96.8344 275.967 97.1129 245.35 97.1129 207.929C97.1129 170.508 96.7617 139.935 96.3336 139.989C95.9055 140.043 89.1253 144.133 81.2664 149.077ZM194.27 170.889L179.723 179.997L179.453 234.734L179.184 289.471H181.552C184.184 289.471 196.784 286.189 204.401 283.519L209.337 281.789V221.746C209.337 188.723 209.22 161.722 209.078 161.743C208.935 161.765 202.271 165.88 194.27 170.889Z" fill="black"/>
</svg>
