<svg width="318" height="318" viewBox="0 0 318 318" fill="none" xmlns="http://www.w3.org/2000/svg">
<path fill-rule="evenodd" clip-rule="evenodd" d="M136.997 0.773413C133 1.32332 124.41 3.16289 117.908 4.86033C67.0663 18.1389 25.5215 56.574 7.92324 106.614C1.6259 124.521 -0.0665488 135.806 0.00197962 159.437C0.0684314 182.269 1.16281 189.656 7.30337 208.721C23.636 259.426 67.0393 299.879 119.167 312.98C164.493 324.372 210.007 316.26 249.135 289.816C261.342 281.565 281.538 261.384 289.795 249.185C316.258 210.086 324.377 164.605 312.976 119.312C298.246 60.7833 250.729 15.4973 190.635 2.71156C178.977 0.231811 148.854 -0.85658 136.997 0.773413ZM145.375 59.9356C138.204 61.3996 125.722 67.3676 119.011 72.5419C106.769 81.9784 97.8024 98.2234 95.7154 114.746C94.6957 122.815 94.8131 124.748 96.8502 133.477C99.8707 146.416 106.608 163.085 118.247 186.413C131.156 212.287 155.669 255.871 158.187 257.426C160.598 258.915 197.407 192.354 208.933 165.662C219.911 140.239 222.948 127.904 221.456 114.797C219.818 100.42 214.618 89.3813 204.398 78.5846C192.368 65.8767 178.927 59.834 161.398 59.2519C155.401 59.0527 148.191 59.3608 145.375 59.9356ZM148.268 97.6475C146.473 98.4278 143.141 100.748 140.865 102.803C127.223 115.119 130.657 137.806 147.338 145.568C163.722 153.192 182.104 143.15 184.76 125.124C186.231 115.145 180.249 103.9 170.884 99.0378C166.385 96.7023 163.988 96.1545 158.424 96.1867C154.634 96.2095 150.065 96.8662 148.268 97.6475Z" fill="black"/>
</svg>
