<svg width="166" height="224" viewBox="0 0 166 224" fill="none" xmlns="http://www.w3.org/2000/svg">
<g filter="url(#filter0_d_44_70)">
<circle cx="81" cy="137" r="77" fill="#D9D9D9"/>
<path d="M76.95 171.3C77.15 169.2 77.25 167.2 77.25 165.3C77.35 163.4 77.4 161.85 77.4 160.65V139.95H58.05C56.25 139.95 54.2 140 51.9 140.1C49.6 140.1 47.85 140.2 46.65 140.4H46.35C45.55 140.4 44.9 139.9 44.4 138.9C43.9 137.8 43.65 136.7 43.65 135.6C43.65 133.5 44.4 132.45 45.9 132.45C47.4 132.55 49.2 132.65 51.3 132.75C53.5 132.75 55.8 132.75 58.2 132.75H77.4V114.3C77.4 111.9 77.35 109.65 77.25 107.55C77.25 105.35 77.2 103.5 77.1 102C77.1 101.2 77.4 100.65 78 100.35C78.6 99.95 79.3 99.75 80.1 99.75C81.2 99.75 82.3 100 83.4 100.5C84.5 101 85.05 101.65 85.05 102.45V102.75C84.95 103.95 84.85 105.7 84.75 108C84.65 110.3 84.6 112.35 84.6 114.15V132.75H104.25C105.35 132.75 106.85 132.7 108.75 132.6C110.75 132.5 112.8 132.4 114.9 132.3H115.05C115.95 132.3 116.65 132.8 117.15 133.8C117.75 134.8 118.05 135.85 118.05 136.95C118.05 137.75 117.85 138.5 117.45 139.2C117.15 139.8 116.6 140.1 115.8 140.1C113.5 140.1 111.25 140.1 109.05 140.1C106.95 140 105.3 139.95 104.1 139.95H84.6V160.5C84.6 161.9 84.6 163.65 84.6 165.75C84.7 167.75 84.75 169.9 84.75 172.2C84.75 172.9 84.4 173.45 83.7 173.85C83.1 174.25 82.4 174.45 81.6 174.45C80.5 174.45 79.45 174.2 78.45 173.7C77.45 173.1 76.95 172.35 76.95 171.45V171.3Z" fill="black"/>
</g>
<defs>
<filter id="filter0_d_44_70" x="0" y="58" width="166" height="166" filterUnits="userSpaceOnUse" color-interpolation-filters="sRGB">
<feFlood flood-opacity="0" result="BackgroundImageFix"/>
<feColorMatrix in="SourceAlpha" type="matrix" values="0 0 0 0 0 0 0 0 0 0 0 0 0 0 0 0 0 0 127 0" result="hardAlpha"/>
<feOffset dx="2" dy="4"/>
<feGaussianBlur stdDeviation="3"/>
<feComposite in2="hardAlpha" operator="out"/>
<feColorMatrix type="matrix" values="0 0 0 0 0 0 0 0 0 0 0 0 0 0 0 0 0 0 0.25 0"/>
<feBlend mode="normal" in2="BackgroundImageFix" result="effect1_dropShadow_44_70"/>
<feBlend mode="normal" in="SourceGraphic" in2="effect1_dropShadow_44_70" result="shape"/>
</filter>
</defs>
</svg>
